<?xml version="1.0" encoding="utf-8"?>
<svg id="master-artboard" viewBox="0 0 1400 980" version="1.1" xmlns="http://www.w3.org/2000/svg" x="0px" y="0px" style="enable-background:new 0 0 1400 980;" width="1400px" height="980px" xmlns:xlink="http://www.w3.org/1999/xlink">

<path d="M 0 0 H 1400 V 980 H 0 V 0 Z" id="XMLID_2_" class="st0" style="fill: rgb(194, 225, 242);" transform="matrix(1, 0, 0, 1, -2.842170943040401e-14, 0)"/><defs>
			<path d="M 0 0 H 1400 V 980 H 0 V 0 Z" id="XMLID_214_"/>
		</defs><clipPath id="XMLID_218_">
			<use style="overflow:visible;" xlink:href="#XMLID_214_"/>
		</clipPath><path id="XMLID_209_" class="st2" d="M-70.9,202.1c0,0,718.5-42.3,759-42.2c40.5,0.2,88.2-17.2-142.7,65S125.5,364.1,54.3,419.6&#10;&#9;&#9;&#9;&#9;s-173.2-76.5-173.2-86.2C-118.9,323.6-70.9,202.1-70.9,202.1z" style="opacity: 0.48; fill: rgb(181, 215, 229); clip-path: url('#XMLID_218_');" transform="matrix(1, 0, 0, 1, -8.526512829121202e-14, 0)"/><path id="XMLID_208_" class="st2" d="M1558,233.3c0,0,7.5-12.8-298.5,80S776.3,470.5,711.2,493.1&#10;&#9;&#9;&#9;&#9;c-65.1,22.5-161.9,45.7-161.9,45.7s293.5,22.6,566.4-43s364.4-160.2,442.4-167.7S1558,233.3,1558,233.3z" style="opacity: 0.48; fill: rgb(181, 215, 229); clip-path: url('#XMLID_218_');" transform="matrix(1, 0, 0, 1, -8.526512829121202e-14, 0)"/><path id="XMLID_210_" class="st3" d="M640.5,515.6c0,0,203.2-76,354-134.4s261.7-84,349.5-113.2c87.8-29.2,156.8-62.4,156.8-62.4&#10;&#9;&#9;&#9;&#9;s4.5,50.2-10.5,62.4c-15,12.1,1.2,32.2-207.1,77.2S640.5,515.6,640.5,515.6z" style="opacity: 0.41; fill: rgb(206, 233, 244); clip-path: url('#XMLID_218_');" transform="matrix(1, 0, 0, 1, -8.526512829121202e-14, 0)"/><path id="XMLID_211_" class="st2" d="M-160.9,878.3c0,0,240.1-83,384-103.6s366.5-20.1,544-60.1c177.4-40,331-92.2,355.5-107.3&#10;&#9;&#9;&#9;&#9;s-251.1,139.4-393,176.9S454.1,837,340.1,859.3c-114,22.3-141.4,49.3-274,92.8c-132.5,43.5-212,37.5-212,37.5L-160.9,878.3z" style="opacity: 0.48; fill: rgb(181, 215, 229); clip-path: url('#XMLID_218_');" transform="matrix(1, 0, 0, 1, -8.526512829121202e-14, 0)"/><path id="XMLID_213_" class="st3" d="M415.5,825c0,0-203.2,76-354,134.4s-261.7,84-349.5,113.2c-87.8,29.2-156.8,62.4-156.8,62.4&#10;&#9;&#9;&#9;&#9;s-4.5-50.2,10.5-62.4s-1.2-32.2,207.1-77.2C-18.8,950.3,415.5,825,415.5,825z" style="opacity: 0.41; fill: rgb(206, 233, 244); clip-path: url('#XMLID_218_');" transform="matrix(1, 0, 0, 1, -8.526512829121202e-14, 0)"/><path id="XMLID_415_" d="M1365.1,126.9l-6.2-14c-1.2-2.8-4.5-4.1-7.4-2.9l-118,52.1c-2.8,1.2-4.1,4.5-2.8,7.4l0.4,1l-13.8,6.1&#10;&#9;&#9;&#9;c-19.3-35.2-62.7-50.5-100.1-34c-30,13.3-47.5,43.3-46.5,74.3c0.3,9.7,2.4,19.4,6.6,28.8c17.4,39.4,63.6,57.3,103.1,39.9&#10;&#9;&#9;&#9;c28.6-12.6,45.8-40.5,46.5-69.9c0.2-9-1.1-18.1-4.1-27l13.8-6.1l0.4,1c1.2,2.8,4.5,4.1,7.4,2.9l118-52.1&#10;&#9;&#9;&#9;C1365.1,133,1366.4,129.7,1365.1,126.9z" transform="matrix(1, 0, 0, 1, -5.684341886080802e-14, 0)" style="opacity: 0.16;"/><path id="XMLID_418_" d="M1338.6,414.2l-90.2-10.5l0.7-3.6c0.4-2.5-1.2-4.8-3.7-5.3l-59.5-10.6c0.4-1.2,0.8-2.3,1-3.6&#10;&#9;&#9;&#9;c2.3-12.8-6.2-25.1-19.1-27.4c-12.8-2.3-25.1,6.3-27.4,19.1c-0.2,1.2-0.3,2.5-0.3,3.7l-59.5-10.6c-2.5-0.4-4.8,1.2-5.3,3.7&#10;&#9;&#9;&#9;l-2.5,14.2l-120.6-14.1c-2.8-0.3-5.4,1.7-5.7,4.5l-58.3,498.9c-0.3,2.8,1.7,5.4,4.5,5.7l287.1,33.6l-8.9,15.7&#10;&#9;&#9;&#9;c-1.3,2.3-0.5,5.1,1.8,6.4l9.2,5.2c2.3,1.3,5.1,0.5,6.4-1.8l13.1-23.1l77.7,9.1c2.8,0.3,5.4-1.7,5.7-4.5l21.4-182.9l14.6-25.7&#10;&#9;&#9;&#9;c1.3-2.2,0.5-5.1-1.8-6.4l-8.5-4.8l32.6-279C1343.5,417.1,1341.4,414.6,1338.6,414.2z M1152.4,373.6c1.1-6.3,7.2-10.5,13.5-9.4&#10;&#9;&#9;&#9;c6.3,1.1,10.5,7.2,9.4,13.4c-1.1,6.3-7.1,10.5-13.4,9.4C1155.5,385.9,1151.3,379.9,1152.4,373.6z" transform="matrix(1, 0, 0, 1, -5.684341886080802e-14, 0)" style="opacity: 0.16;"/><path id="XMLID_419_" d="M299.3,237.4c-3.9,3.4-4.3,9.4-0.9,13.3l62.3,70.8c3.4,3.9,9.4,4.3,13.3,0.8l124.6-109.7&#10;&#9;&#9;&#9;c3.4,2,7.8,1.7,11-1l22.1-19.5c3.9-3.4,4.3-9.4,0.8-13.3l-70.9-80.5c-3.4-3.9-9.4-4.3-13.3-0.8L426.3,117c-3.1,2.8-4,7.1-2.4,10.7&#10;&#9;&#9;&#9;L299.3,237.4z" transform="matrix(1, 0, 0, 1, -5.684341886080802e-14, 0)" style="opacity: 0.16;"/><path id="XMLID_420_" d="M798.2,223.7l36,36c1.5,1.5,4,1.5,5.6,0l40.5-40.5l40.5,40.5c1.5,1.5,4,1.5,5.6,0l36-36&#10;&#9;&#9;&#9;c1.5-1.5,1.5-4,0-5.6l-40.5-40.5l40.5-40.5c1.5-1.5,1.5-4,0-5.6l-36-36c-1.5-1.5-4-1.5-5.6,0l-40.5,40.5l-40.5-40.5&#10;&#9;&#9;&#9;c-1.5-1.5-4-1.5-5.6,0l-36,36c-1.5,1.5-1.5,4,0,5.6l40.5,40.5l-40.5,40.5C796.6,219.7,796.6,222.2,798.2,223.7z" transform="matrix(1, 0, 0, 1, -5.684341886080802e-14, 0)" style="opacity: 0.16;"/><path id="XMLID_421_" d="M765.7,785.7l-36-36c-1.5-1.5-4-1.5-5.6,0l-40.5,40.5l-40.5-40.5c-1.5-1.5-4-1.5-5.6,0l-36,36&#10;&#9;&#9;&#9;c-1.5,1.5-1.5,4,0,5.6l40.5,40.5l-40.5,40.5c-1.5,1.5-1.5,4,0,5.6l36,36c1.5,1.5,4,1.5,5.6,0l40.5-40.5l40.5,40.5&#10;&#9;&#9;&#9;c1.5,1.5,4,1.5,5.6,0l36-36c1.5-1.5,1.5-4,0-5.6l-40.5-40.5l40.5-40.5C767.2,789.7,767.2,787.2,765.7,785.7z" transform="matrix(1, 0, 0, 1, -5.684341886080802e-14, 0)" style="opacity: 0.16;"/><path id="XMLID_422_" d="M829.1,466.8l0.5-0.4c2.3-1.8,2.8-5.2,1-7.5l-14.7-19.1l0.7-0.6c2.4-1.9,2.9-5.4,1-7.8&#10;&#9;&#9;&#9;c-1.9-2.4-5.4-2.9-7.8-1l3.5-2.7c1.1-0.8,1.9-1.8,2.6-2.9c0.1-0.1,0.1-0.2,0.2-0.3c0-0.1,0.1-0.2,0.1-0.3c1.6-2.9,1.8-6.4,0.5-9.2&#10;&#9;&#9;&#9;c-0.4-0.8-0.8-1.7-1.4-2.4L700,263.2c-0.3-0.4-0.7-0.8-1.1-1.2l3-2.3c4-3.1,4.7-8.8,1.6-12.8c-3.1-4-8.8-4.7-12.8-1.6l-13,10.1&#10;&#9;&#9;&#9;l-40.5-52.5l5.9-4.5c2.3-1.8,2.8-5.2,1-7.5l-0.1-0.2c-1.8-2.3-5.2-2.8-7.5-1l-10.1,7.8l-8.3,6.4l-10.1,7.8c-2.3,1.8-2.8,5.2-1,7.5&#10;&#9;&#9;&#9;l0.1,0.2c1.8,2.4,5.2,2.8,7.5,1l5.9-4.5l40.5,52.5l-13,10.1c-4,3.1-4.7,8.8-1.7,12.8c3.1,4,8.8,4.7,12.8,1.6l3-2.3&#10;&#9;&#9;&#9;c0.3,0.5,0.5,0.9,0.9,1.4l115.3,149.4c0.6,0.8,1.3,1.4,2,2c2.4,2.1,5.8,2.7,9,1.9c0.1,0,0.2,0,0.3-0.1c0.1,0,0.2-0.1,0.3-0.1&#10;&#9;&#9;&#9;c1.2-0.4,2.4-0.9,3.4-1.8l0.1-0.1l0,0l0.2-0.2l3.2-2.4c-2.4,1.9-2.9,5.4-1,7.8s5.4,2.9,7.8,1l0.7-0.6l14.7,19.1&#10;&#9;&#9;&#9;c1.8,2.3,5.2,2.8,7.5,1l0.5-0.4l50.8,65.9c0.4,0.6,1.3,0.7,1.9,0.2c0.6-0.5,0.7-1.3,0.2-1.9L829.1,466.8z" transform="matrix(1, 0, 0, 1, -5.684341886080802e-14, 0)" style="opacity: 0.16;"/><path id="XMLID_423_" d="M518.9,684.2L502.1,616c-6.7-27.3-34.4-44.1-61.7-37.4l-40,9.8c-27.3,6.7-44.1,34.4-37.4,61.7l0.4,1.7&#10;&#9;&#9;&#9;l43,175l0.4,1.7c5,20.2-7.4,40.7-27.6,45.6l-40,9.8c-20.2,5-40.7-7.4-45.6-27.6l-37.5-152.7l0.2,0c1.5-0.4,2.4-1.8,2-3.3&#10;&#9;&#9;&#9;l-4.6-18.6l18.6-4.6c1.5-0.4,2.4-1.8,2-3.3l-0.5-2.2c58.4-27.8,59.4-94,59.4-94.8l-3.1-51.8l-6.1-102.2c0-0.2,0-0.3,0-0.5&#10;&#9;&#9;&#9;c-7.3-56.8-47-85.4-60.8-93.7c0.9-4.4-1.8-8.7-6.2-9.7c-4.4-1-8.8,1.7-9.8,6.1l-2.5,11c-1,4.4,1.7,8.8,6.1,9.8&#10;&#9;&#9;&#9;c3.5,0.8,7-0.8,8.7-3.7c14.1,9.5,45.1,35.2,51.1,81.6l6.1,101.7l3.1,51.6c0,2.4-1.1,57.2-50.2,81.6c-0.6-0.3-1.3-0.4-2-0.3&#10;&#9;&#9;&#9;L249,663l-4.6-18.6c-0.4-1.5-1.8-2.4-3.3-2l-13.3,3.3c-1.5,0.4-2.4,1.8-2,3.3l4.6,18.6l-18.6,4.6c-1.3,0.3-2.1,1.5-2.1,2.7&#10;&#9;&#9;&#9;c-60.4,6.3-89.2-46.4-90.4-48.6l-21.2-47.1l-41.8-93c-16.1-43.9-0.6-81.1,7.5-96c2.9,1.7,6.7,1.5,9.4-0.8&#10;&#9;&#9;&#9;c3.4-2.9,3.8-8.1,0.9-11.5l-7.3-8.6c-2.9-3.4-8.1-3.8-11.5-0.9c-3.4,2.9-3.8,8-1,11.4c-8.3,13.7-30.3,57.5-10.5,111.2&#10;&#9;&#9;&#9;c0.1,0.1,0.1,0.3,0.2,0.4l41.9,93.3l21.3,47.3c0.4,0.7,34.8,64.2,105.5,55.8l0.2,0.8c0.4,1.5,1.8,2.4,3.3,2l18.6-4.6l4.6,18.6&#10;&#9;&#9;&#9;c0.4,1.5,1.9,2.4,3.3,2l0.2,0l37.5,152.7c6.7,27.3,34.4,44.1,61.7,37.4l40-9.8c27.3-6.7,44.1-34.4,37.4-61.7l-0.4-1.7l-43-175&#10;&#9;&#9;&#9;l-0.4-1.7c-5-20.2,7.4-40.7,27.6-45.6l40-9.8c20.2-5,40.7,7.4,45.6,27.6l16.8,68.2c-12.2,6.1-19.1,20.1-15.7,33.9&#10;&#9;&#9;&#9;c3.9,16.1,20.2,25.9,36.2,21.9c16.1-3.9,25.9-20.2,21.9-36.2C545,693.2,532.5,684,518.9,684.2z" transform="matrix(1, 0, 0, 1, -5.684341886080802e-14, 0)" style="opacity: 0.16;"/><path id="XMLID_424_" d="M612.7,427.3c0.3,0.6,0.7,1,1.1,1.2l3.7,8.7c-0.2,0.4-0.2,1,0.1,1.6c0.3,0.6,0.7,1,1.1,1.2l3.7,8.7&#10;&#9;&#9;&#9;c-0.2,0.4-0.2,1,0.1,1.6c0.3,0.6,0.7,1,1.1,1.2l3.7,8.7c-0.2,0.4-0.2,1,0.1,1.6c0.3,0.6,0.7,1,1.1,1.2l3.7,8.7&#10;&#9;&#9;&#9;c-0.2,0.4-0.2,1,0.1,1.6c0.3,0.6,0.7,1,1.1,1.2l3.7,8.7c-0.2,0.4-0.2,1,0.1,1.6c0.3,0.6,0.7,1,1.1,1.2l3.7,8.7&#10;&#9;&#9;&#9;c-0.2,0.4-0.2,1,0.1,1.6c0.3,0.6,0.7,1,1.1,1.2l3.7,8.7c-0.2,0.4-0.2,1,0.1,1.6c0.3,0.6,0.7,1,1.1,1.2l3.7,8.7&#10;&#9;&#9;&#9;c-0.2,0.4-0.2,1,0.1,1.6c0.3,0.6,0.7,1,1.1,1.2l3.7,8.7c-0.2,0.4-0.2,1,0.1,1.6c0.3,0.6,0.7,1,1.1,1.2l3.7,8.7&#10;&#9;&#9;&#9;c-0.2,0.4-0.2,1,0.1,1.6c0.3,0.6,0.7,1,1.1,1.2l3.7,8.7c-0.2,0.4-0.2,1,0.1,1.6c0.3,0.6,0.7,1,1.1,1.2l3.7,8.7&#10;&#9;&#9;&#9;c-0.2,0.4-0.2,1,0.1,1.6c0.3,0.6,0.7,1,1.1,1.2l3.7,8.7c-0.2,0.4-0.2,1,0.1,1.6c0.3,0.6,0.7,1,1.1,1.2l3.7,8.7&#10;&#9;&#9;&#9;c-0.2,0.4-0.2,1,0.1,1.6c0.3,0.6,0.7,1,1.1,1.2l3.7,8.7c-0.2,0.4-0.2,1,0.1,1.6c0.3,0.6,0.7,1,1.1,1.2l3.7,8.7&#10;&#9;&#9;&#9;c-0.2,0.4-0.2,1,0.1,1.6c0.3,0.6,0.7,1,1.1,1.2l3.7,8.7c-0.2,0.4-0.2,1,0.1,1.6c0.3,0.6,0.7,1,1.1,1.2l3.7,8.7&#10;&#9;&#9;&#9;c-0.2,0.4-0.2,1,0.1,1.6c0.3,0.6,0.7,1,1.1,1.2l3.7,8.7c-0.2,0.4-0.2,1,0.1,1.6c0.3,0.6,0.7,1,1.1,1.2l16.2,38.4&#10;&#9;&#9;&#9;c1.4,3.4,5.3,5,8.7,3.5l5.2-2.2c3.4-1.4,5-5.3,3.5-8.7L608.9,368.1c-1.3-3.1-4.6-4.6-7.7-3.9l-20.3-48.1c-1-2.4-3.8-3.5-6.2-2.5&#10;&#9;&#9;&#9;c-2.4,1-3.5,3.8-2.5,6.2l20.5,48.5c-1.7,1.9-2.3,4.6-1.2,7.1l21.2,50.1C612.4,426,612.4,426.7,612.7,427.3z" transform="matrix(1, 0, 0, 1, -5.684341886080802e-14, 0)" style="opacity: 0.16;"/><path id="XMLID_425_" d="M499.6,414.3c6.6,0,12-5.4,12-12v-3.5c0-6.6-5.4-12-12-12h-17h-17c-6.6,0-12,5.4-12,12v3.5&#10;&#9;&#9;&#9;c0,6.6,5.4,12,12,12h17H499.6z" transform="matrix(1, 0, 0, 1, -5.684341886080802e-14, 0)" style="opacity: 0.16;"/><path id="XMLID_426_" d="M445.2,402.2v-17v-17.1c0-6.6-5.4-12-12-12h-3.5c-6.6,0-12,5.4-12,12v17.1v17c0,6.6,5.4,12,12,12h3.5&#10;&#9;&#9;&#9;C439.8,414.3,445.2,408.9,445.2,402.2z" transform="matrix(1, 0, 0, 1, -5.684341886080802e-14, 0)" style="opacity: 0.16;"/><path id="XMLID_427_" d="M585.6,404.7l-14.2-9.5l-14.1-9.5c-5.5-3.7-13-2.2-16.7,3.3l-2,2.9c-3.7,5.5-2.2,13,3.3,16.7l14.1,9.5&#10;&#9;&#9;&#9;l14.2,9.5c5.5,3.7,13,2.2,16.7-3.3l2-2.9C592.5,415.9,591.1,408.4,585.6,404.7z" transform="matrix(1, 0, 0, 1, -5.684341886080802e-14, 0)" style="opacity: 0.16;"/><path id="XMLID_428_" d="M443.6,466l10.6,13.3c4.1,5.2,11.7,6,16.9,1.9l2.7-2.2c5.2-4.2,6-11.7,1.9-16.9l-10.6-13.3l-10.6-13.3&#10;&#9;&#9;&#9;c-4.1-5.2-11.7-6-16.9-1.9l-2.7,2.2c-5.2,4.1-6,11.7-1.9,16.9L443.6,466z" transform="matrix(1, 0, 0, 1, -5.684341886080802e-14, 0)" style="opacity: 0.16;"/><path id="XMLID_429_" d="M499.4,457.2h17h17c6.6,0,12-5.4,12-12v-3.5c0-6.6-5.4-12-12-12h-17h-17c-6.6,0-12,5.4-12,12v3.5&#10;&#9;&#9;&#9;C487.3,451.8,492.7,457.2,499.4,457.2z" transform="matrix(1, 0, 0, 1, -5.684341886080802e-14, 0)" style="opacity: 0.16;"/><path id="XMLID_430_" d="M489.4,355.8l14.2,9.5c5.5,3.7,13,2.2,16.7-3.3l2-2.9c3.7-5.5,2.2-13-3.3-16.7l-14.2-9.5l-14.1-9.5&#10;&#9;&#9;&#9;c-5.5-3.7-13-2.2-16.7,3.3l-2,2.9c-3.7,5.5-2.2,13,3.3,16.7L489.4,355.8z" transform="matrix(1, 0, 0, 1, -5.684341886080802e-14, 0)" style="opacity: 0.16;"/><path id="XMLID_431_" d="M391.6,399.9c-4.1-5.2-11.7-6-16.9-1.9l-2.7,2.2c-5.2,4.1-6,11.7-1.9,16.9l10.6,13.3l10.6,13.3&#10;&#9;&#9;&#9;c4.1,5.2,11.7,6,16.9,1.9l2.7-2.2c5.2-4.2,6-11.7,1.9-16.9l-10.6-13.3L391.6,399.9z" transform="matrix(1, 0, 0, 1, -5.684341886080802e-14, 0)" style="opacity: 0.16;"/><path id="XMLID_432_" d="M174.2,173.7h17h17c6.6,0,12-5.4,12-12v-3.5c0-6.6-5.4-12-12-12h-17h-17c-6.6,0-12,5.4-12,12v3.5&#10;&#9;&#9;&#9;C162.2,168.4,167.6,173.7,174.2,173.7z" transform="matrix(1, 0, 0, 1, -5.684341886080802e-14, 0)" style="opacity: 0.16;"/><path id="XMLID_433_" d="M138.4,173.7h3.5c6.6,0,12-5.4,12-12v-17v-17.1c0-6.6-5.4-12-12-12h-3.5c-6.6,0-12,5.4-12,12v17.1v17&#10;&#9;&#9;&#9;C126.3,168.4,131.7,173.7,138.4,173.7z" transform="matrix(1, 0, 0, 1, -5.684341886080802e-14, 0)" style="opacity: 0.16;"/><path id="XMLID_434_" d="M250.6,168.1l14.1,9.5l14.2,9.5c5.5,3.7,13,2.2,16.7-3.3l2-2.9c3.7-5.5,2.2-13-3.3-16.7l-14.2-9.5&#10;&#9;&#9;&#9;l-14.1-9.5c-5.5-3.7-13-2.2-16.7,3.3l-2,2.9C243.7,156.9,245.1,164.4,250.6,168.1z" transform="matrix(1, 0, 0, 1, -5.684341886080802e-14, 0)" style="opacity: 0.16;"/><path id="XMLID_435_" d="M143.6,195.3c-5.2,4.1-6,11.7-1.9,16.9l10.6,13.3l10.6,13.3c4.1,5.2,11.7,6,16.9,1.9l2.7-2.2&#10;&#9;&#9;&#9;c5.2-4.2,6-11.7,1.9-16.9l-10.6-13.3l-10.6-13.3c-4.1-5.2-11.7-6-16.9-1.9L143.6,195.3z" transform="matrix(1, 0, 0, 1, -5.684341886080802e-14, 0)" style="opacity: 0.16;"/><path id="XMLID_436_" d="M208.1,189.1c-6.6,0-12,5.4-12,12v3.5c0,6.6,5.4,12,12,12h17h17c6.6,0,12-5.4,12-12v-3.5&#10;&#9;&#9;&#9;c0-6.6-5.4-12-12-12h-17H208.1z" transform="matrix(1, 0, 0, 1, -5.684341886080802e-14, 0)" style="opacity: 0.16;"/><path id="XMLID_437_" d="M184,105.8l14.1,9.5l14.2,9.5c5.5,3.7,13,2.2,16.7-3.3l2-2.9c3.7-5.5,2.2-13-3.3-16.7l-14.2-9.5&#10;&#9;&#9;&#9;l-14.1-9.5c-5.5-3.7-13-2.2-16.7,3.3l-2,2.9C177,94.7,178.5,102.1,184,105.8z" transform="matrix(1, 0, 0, 1, -5.684341886080802e-14, 0)" style="opacity: 0.16;"/><path id="XMLID_438_" d="M89.4,190l10.6,13.3c4.1,5.2,11.7,6,16.9,1.9l2.7-2.2c5.2-4.2,6-11.7,1.9-16.9L111,172.7l-10.6-13.3&#10;&#9;&#9;&#9;c-4.1-5.2-11.7-6-16.9-1.9l-2.7,2.2c-5.2,4.1-6,11.7-1.9,16.9L89.4,190z" transform="matrix(1, 0, 0, 1, -5.684341886080802e-14, 0)" style="opacity: 0.16;"/><g id="XMLID_4_" transform="matrix(1, 0, 0, 1, -5.684341886080802e-14, 0)">
			<path id="XMLID_10_" class="st5" d="M1220.8,159.5l0.4,1l-18.3,8.1c-2.8,1.2-4.1,4.5-2.8,7.4l0.8,1.9c1.2,2.8,4.5,4.1,7.4,2.9&#10;&#9;&#9;&#9;&#9;l18.3-8.1l0.4,1c1.2,2.8,4.5,4.1,7.4,2.9l118-52.1c2.8-1.2,4.1-4.5,2.9-7.4l-6.2-14c-1.2-2.8-4.5-4.1-7.4-2.9l-118,52.1&#10;&#9;&#9;&#9;&#9;C1220.8,153.4,1219.5,156.7,1220.8,159.5z" style="fill: rgb(74, 127, 145);"/>
			<g id="XMLID_5_">
				<path id="XMLID_9_" class="st6" d="M1077.6,206.7c0.3,7.4,1.9,14.9,5.1,22.1c13.7,31,50,45,81,31.4&#10;&#9;&#9;&#9;&#9;&#9;c22.3-9.9,35.8-31.5,36.5-54.4c0.3-8.9-1.3-17.9-5.1-26.5c-13.7-31-50-45-81-31.4C1090.3,158.4,1076.5,182.2,1077.6,206.7z" style="fill: rgb(119, 234, 221);"/>
				<path id="XMLID_6_" class="st5" d="M1060.8,206.9c0.3,9.7,2.4,19.4,6.6,28.8c17.4,39.4,63.6,57.3,103.1,39.9&#10;&#9;&#9;&#9;&#9;&#9;c28.6-12.6,45.8-40.5,46.5-69.9c0.2-11.1-1.8-22.4-6.6-33.2c-17.4-39.4-63.6-57.3-103.1-39.9&#10;&#9;&#9;&#9;&#9;&#9;C1077.2,145.8,1059.7,175.9,1060.8,206.9z M1195,179.2c3.8,8.6,5.4,17.7,5.1,26.5c-0.7,22.9-14.2,44.6-36.5,54.4&#10;&#9;&#9;&#9;&#9;&#9;c-31,13.7-67.3-0.4-81-31.4c-3.2-7.2-4.8-14.7-5.1-22.1c-1-24.5,12.7-48.3,36.5-58.8C1145,134.2,1181.3,148.3,1195,179.2z" style="fill: rgb(74, 127, 145);"/>
			</g>
			<path id="XMLID_11_" class="st7" d="M1163.7,260.2c22.3-9.9,35.8-31.5,36.5-54.4l-122.6,0.9c0.3,7.4,1.9,14.9,5.1,22.1&#10;&#9;&#9;&#9;&#9;C1096.4,259.8,1132.7,273.9,1163.7,260.2z" style="opacity: 0.5; fill: rgb(255, 255, 255);"/>
		</g><g id="XMLID_89_" transform="matrix(1, 0, 0, 1, -8.526512829121202e-14, 0)">
				<path id="XMLID_79_" class="st8" d="M1274.8,908.8c-0.3,2.8-2.9,4.9-5.7,4.5l-386.3-45.1c-2.8-0.3-4.8-2.9-4.5-5.7l58.3-498.9&#10;&#9;&#9;&#9;&#9;&#9;c0.3-2.8,2.9-4.8,5.7-4.5l386.3,45.1c2.8,0.3,4.9,2.9,4.5,5.7L1274.8,908.8z" style="fill: rgb(193, 146, 77);"/>
				
					<path d="M 937 412.200012 H 1274.399994 V 860.300018 H 937 V 412.200012 Z" id="XMLID_78_" transform="matrix(0.9932 0.1161 -0.1161 0.9932 81.3228 -124.042)" class="st9" style="fill: rgb(248, 248, 248);"/>
				<g id="XMLID_101_">
					<path id="XMLID_102_" class="st10" d="M1235.4,384.8l-59.5-10.6c0.4-1.2,0.8-2.3,1-3.6c2.3-12.8-6.2-25.1-19.1-27.4&#10;&#9;&#9;&#9;&#9;&#9;&#9;c-12.8-2.3-25.1,6.3-27.4,19.1c-0.2,1.2-0.3,2.5-0.3,3.7l-59.5-10.6c-2.5-0.4-4.8,1.2-5.3,3.7l-3.4,19&#10;&#9;&#9;&#9;&#9;&#9;&#9;c-0.4,2.5,1.2,4.8,3.7,5.3l164.7,29.5c2.5,0.4,4.8-1.2,5.3-3.7l3.4-19C1239.5,387.6,1237.9,385.2,1235.4,384.8z M1151.8,377&#10;&#9;&#9;&#9;&#9;&#9;&#9;c-6.3-1.1-10.5-7.1-9.4-13.5c1.1-6.3,7.2-10.5,13.5-9.4c6.3,1.1,10.5,7.2,9.4,13.4C1164.1,374,1158.1,378.2,1151.8,377z" style="fill: rgb(253, 90, 57);"/>
				</g>
				<g id="XMLID_90_">
					<g id="XMLID_98_">
						<path id="XMLID_73_" class="st10" d="M1148.4,473.2l-16.5-1.9l1.9-16.6c0.2-1.3-0.8-2.5-2.1-2.6l-11.8-1.4&#10;&#9;&#9;&#9;&#9;&#9;&#9;&#9;c-1.3-0.2-2.5,0.8-2.6,2.1l-1.9,16.6l-16.5-1.9c-1.3-0.2-2.5,0.8-2.6,2.1l-1.4,11.8c-0.2,1.3,0.8,2.5,2.1,2.6l16.5,1.9&#10;&#9;&#9;&#9;&#9;&#9;&#9;&#9;l-1.9,16.6c-0.2,1.3,0.8,2.5,2.1,2.6l11.8,1.4c1.3,0.2,2.5-0.8,2.6-2.1l1.9-16.6l16.6,1.9c1.3,0.2,2.5-0.8,2.6-2.1l1.4-11.8&#10;&#9;&#9;&#9;&#9;&#9;&#9;&#9;C1150.7,474.5,1149.7,473.3,1148.4,473.2z" style="fill: rgb(253, 90, 57);"/>
						
							<path d="M 1063.300049 519.599976 H 1170.600052 V 534.799975 H 1063.300049 V 519.599976 Z" id="XMLID_71_" transform="matrix(0.9932 0.1161 -0.1161 0.9932 68.7502 -126.0835)" class="st11" style="fill: rgb(209, 209, 209);"/>
					</g>
					<g id="XMLID_91_">
						
							<path d="M 969.200012 581.400024 H 1253.100006 V 596.600024 H 969.200012 V 581.400024 Z" id="XMLID_70_" transform="matrix(0.9932 0.1161 -0.1161 0.9932 75.8845 -125.0005)" class="st11" style="fill: rgb(209, 209, 209);"/>
						
							<path d="M 964.400024 623.299988 H 1248.300018 V 638.599988 H 964.400024 V 623.299988 Z" id="XMLID_68_" transform="matrix(0.9932 0.1161 -0.1161 0.9932 80.7093 -124.1499)" class="st11" style="fill: rgb(209, 209, 209);"/>
						
							<path d="M 959.5 665.099976 H 1243.399994 V 680.299975 H 959.5 V 665.099976 Z" id="XMLID_65_" transform="matrix(0.9932 0.1161 -0.1161 0.9932 85.5339 -123.2993)" class="st11" style="fill: rgb(209, 209, 209);"/>
						
							<path d="M 954.599976 707 H 1238.499969 V 722.2 H 954.599976 V 707 Z" id="XMLID_64_" transform="matrix(0.9932 0.1161 -0.1161 0.9932 90.359 -122.4487)" class="st11" style="fill: rgb(209, 209, 209);"/>
						
							<path d="M 949.700012 748.799988 H 1233.600006 V 763.999988 H 949.700012 V 748.799988 Z" id="XMLID_63_" transform="matrix(0.9932 0.1161 -0.1161 0.9932 95.1826 -121.5983)" class="st11" style="fill: rgb(209, 209, 209);"/>
					</g>
				</g>
			</g><path id="XMLID_62_" class="st5" d="M1178.3,927.4c-1.3,2.3-4.1,3-6.4,1.8l-9.2-5.2c-2.3-1.3-3-4.1-1.8-6.4L1275.5,716&#10;&#9;&#9;&#9;&#9;&#9;c1.3-2.3,4.2-3,6.4-1.8l9.2,5.2c2.3,1.3,3,4.1,1.8,6.4L1178.3,927.4z" style="fill: rgb(74, 127, 145);" transform="matrix(1, 0, 0, 1, -8.526512829121202e-14, 0)"/><path id="XMLID_59_" class="st10" d="M1272.5,767.6c-1.3,2.3-4.1,3-6.4,1.8l-14.3-8.1c-2.3-1.3-3-4.2-1.8-6.4l38.3-67.4&#10;&#9;&#9;&#9;&#9;&#9;&#9;c1.3-2.3,4.1-3,6.4-1.8l14.3,8.1c2.3,1.3,3,4.2,1.8,6.4L1272.5,767.6z" style="fill: rgb(253, 90, 57);" transform="matrix(1, 0, 0, 1, -8.526512829121202e-14, 0)"/><path id="XMLID_159_" class="st12" d="M364.1,312.4c-3.9,3.4-9.9,3.1-13.3-0.8l-62.3-70.8c-3.4-3.9-3.1-9.9,0.9-13.3l150-132&#10;&#9;&#9;&#9;&#9;c3.9-3.4,9.9-3.1,13.3,0.8l62.3,70.8c3.4,3.9,3.1,9.9-0.8,13.3L364.1,312.4z" style="fill: rgb(234, 187, 125);" transform="matrix(1, 0, 0, 1, -8.526512829121202e-14, 0)"/><path id="XMLID_158_" class="st13" d="M499.6,201.7c-3.9,3.4-9.8,3-13.3-0.9l-70.9-80.5c-3.4-3.9-3.1-9.9,0.8-13.3l22.1-19.5&#10;&#9;&#9;&#9;&#9;&#9;c3.9-3.4,9.9-3.1,13.3,0.8l70.9,80.5c3.4,3.9,3.1,9.9-0.8,13.3L499.6,201.7z" style="fill: rgb(229, 229, 229);" transform="matrix(1, 0, 0, 1, -8.526512829121202e-14, 0)"/><path id="XMLID_157_" class="st11" d="M440.6,133.8c-1.3,1.2-3.3,1-4.5-0.3l0,0c-1.2-1.3-1-3.3,0.3-4.5l21.3-18.8&#10;&#9;&#9;&#9;&#9;&#9;&#9;c1.3-1.2,3.3-1,4.5,0.3l0,0c1.2,1.3,1,3.3-0.3,4.5L440.6,133.8z" style="fill: rgb(209, 209, 209);" transform="matrix(1, 0, 0, 1, -8.526512829121202e-14, 0)"/><path id="XMLID_156_" class="st11" d="M427.4,118.8c-1.3,1.2-3.3,1-4.5-0.3l0,0c-1.2-1.3-1-3.3,0.3-4.5l21.3-18.8&#10;&#9;&#9;&#9;&#9;&#9;&#9;c1.3-1.2,3.3-1,4.5,0.3l0,0c1.2,1.3,1,3.3-0.3,4.5L427.4,118.8z" style="fill: rgb(209, 209, 209);" transform="matrix(1, 0, 0, 1, -8.526512829121202e-14, 0)"/><path id="XMLID_155_" class="st11" d="M453.8,148.9c-1.3,1.2-3.3,1-4.5-0.3l0,0c-1.2-1.3-1-3.3,0.3-4.5l21.3-18.8&#10;&#9;&#9;&#9;&#9;&#9;&#9;c1.3-1.2,3.3-1,4.5,0.3l0,0c1.2,1.3,1,3.3-0.3,4.5L453.8,148.9z" style="fill: rgb(209, 209, 209);" transform="matrix(1, 0, 0, 1, -8.526512829121202e-14, 0)"/><path id="XMLID_154_" class="st11" d="M467,163.9c-1.3,1.2-3.3,1-4.5-0.3l0,0c-1.2-1.3-1-3.3,0.3-4.5l21.3-18.8&#10;&#9;&#9;&#9;&#9;&#9;&#9;c1.3-1.2,3.3-1,4.5,0.3l0,0c1.2,1.3,1,3.3-0.3,4.5L467,163.9z" style="fill: rgb(209, 209, 209);" transform="matrix(1, 0, 0, 1, -8.526512829121202e-14, 0)"/><path id="XMLID_153_" class="st11" d="M480.3,178.9c-1.3,1.2-3.3,1-4.5-0.3l0,0c-1.2-1.3-1-3.3,0.3-4.5l21.3-18.8&#10;&#9;&#9;&#9;&#9;&#9;&#9;c1.3-1.2,3.3-1,4.5,0.3l0,0c1.2,1.3,1,3.3-0.3,4.5L480.3,178.9z" style="fill: rgb(209, 209, 209);" transform="matrix(1, 0, 0, 1, -8.526512829121202e-14, 0)"/><path id="XMLID_152_" class="st11" d="M493.5,193.9c-1.3,1.2-3.3,1-4.5-0.3l0,0c-1.2-1.3-1-3.3,0.3-4.5l21.3-18.8&#10;&#9;&#9;&#9;&#9;&#9;&#9;c1.3-1.2,3.3-1,4.5,0.3l0,0c1.2,1.3,1,3.3-0.3,4.5L493.5,193.9z" style="fill: rgb(209, 209, 209);" transform="matrix(1, 0, 0, 1, -8.526512829121202e-14, 0)"/><path d="M 371 176 H 464.199997 V 203.700001 H 371 V 176 Z" id="XMLID_81_" transform="matrix(0.6607000231742859, 0.7505999803543091, -0.7505999803543091, 0.6607000231742859, 284.18600463867176, -249.07969665527344)" class="st14" style="fill: rgb(175, 128, 67);"/><g id="XMLID_109_" transform="matrix(1, 0, 0, 1, -8.526512829121202e-14, 0)">
				<path id="XMLID_122_" class="st14" d="M829.7,249.7c-1.5,1.5-4,1.5-5.6,0l-36-36c-1.5-1.5-1.5-4,0-5.6L910.7,85.7&#10;&#9;&#9;&#9;&#9;&#9;c1.5-1.5,4-1.5,5.6,0l36,36c1.5,1.5,1.5,4,0,5.6L829.7,249.7z" style="fill: rgb(175, 128, 67);"/>
				<path id="XMLID_121_" class="st15" d="M867.7,198.8c-1.3,1.3-3.7,1.2-5.2-0.4l-23-23c-1.5-1.5-1.7-3.9-0.4-5.2l33.6-33.6&#10;&#9;&#9;&#9;&#9;&#9;c1.3-1.3,3.7-1.2,5.2,0.4l23,23c1.5,1.5,1.7,3.9,0.4,5.2L867.7,198.8z" style="fill: rgb(255, 154, 21);"/>
				<g id="XMLID_110_">
					<g id="XMLID_116_">
						<g id="XMLID_118_">
							<path id="XMLID_120_" class="st12" d="M909.9,119.8c-1.2,1.2-3.2,1.2-4.4,0c-1.2-1.2-1.2-3.2,0-4.4c1.2-1.2,3.2-1.2,4.4,0&#10;&#9;&#9;&#9;&#9;&#9;&#9;&#9;&#9;C911.1,116.6,911.1,118.6,909.9,119.8z" style="fill: rgb(234, 187, 125);"/>
							<path id="XMLID_119_" class="st12" d="M922.5,132.3c-1.2,1.2-3.2,1.2-4.4,0c-1.2-1.2-1.2-3.2,0-4.4c1.2-1.2,3.2-1.2,4.4,0&#10;&#9;&#9;&#9;&#9;&#9;&#9;&#9;&#9;C923.7,129.1,923.7,131.1,922.5,132.3z" style="fill: rgb(234, 187, 125);"/>
						</g>
						<path id="XMLID_117_" class="st12" d="M907.5,134.8c-1.2,1.2-3.2,1.2-4.4,0c-1.2-1.2-1.2-3.2,0-4.4c1.2-1.2,3.2-1.2,4.4,0&#10;&#9;&#9;&#9;&#9;&#9;&#9;&#9;C908.7,131.6,908.7,133.6,907.5,134.8z" style="fill: rgb(234, 187, 125);"/>
					</g>
					<g id="XMLID_111_">
						<g id="XMLID_113_">
							<path id="XMLID_115_" class="st12" d="M830.4,215.6c1.2-1.2,3.2-1.2,4.4,0c1.2,1.2,1.2,3.2,0,4.4c-1.2,1.2-3.2,1.2-4.4,0&#10;&#9;&#9;&#9;&#9;&#9;&#9;&#9;&#9;C829.2,218.7,829.2,216.8,830.4,215.6z" style="fill: rgb(234, 187, 125);"/>
							<path id="XMLID_114_" class="st12" d="M817.9,203.1c1.2-1.2,3.2-1.2,4.4,0c1.2,1.2,1.2,3.2,0,4.4c-1.2,1.2-3.2,1.2-4.4,0&#10;&#9;&#9;&#9;&#9;&#9;&#9;&#9;&#9;C816.7,206.2,816.7,204.3,817.9,203.1z" style="fill: rgb(234, 187, 125);"/>
						</g>
						<path id="XMLID_112_" class="st12" d="M832.9,200.6c1.2-1.2,3.2-1.2,4.4,0c1.2,1.2,1.2,3.2,0,4.4c-1.2,1.2-3.2,1.2-4.4,0&#10;&#9;&#9;&#9;&#9;&#9;&#9;&#9;C831.7,203.7,831.7,201.8,832.9,200.6z" style="fill: rgb(234, 187, 125);"/>
					</g>
				</g>
			</g><path id="XMLID_108_" class="st8" d="M788.2,127.2c-1.5-1.5-1.5-4,0-5.6l36-36c1.5-1.5,4-1.5,5.6,0l122.5,122.5&#10;&#9;&#9;&#9;&#9;&#9;c1.5,1.5,1.5,4,0,5.6l-36,36c-1.5,1.5-4,1.5-5.6,0L788.2,127.2z" style="fill: rgb(193, 146, 77);" transform="matrix(1, 0, 0, 1, -8.526512829121202e-14, 0)"/><path id="XMLID_107_" class="st12" d="M839.1,165.1c-1.3-1.3-1.2-3.7,0.4-5.2l23-23c1.5-1.5,3.9-1.7,5.2-0.4l33.6,33.6&#10;&#9;&#9;&#9;&#9;&#9;c1.3,1.3,1.2,3.7-0.4,5.2l-23,23c-1.5,1.5-3.9,1.7-5.2,0.4L839.1,165.1z" style="fill: rgb(234, 187, 125);" transform="matrix(1, 0, 0, 1, -8.526512829121202e-14, 0)"/><g id="XMLID_100_" transform="matrix(1, 0, 0, 1, -8.526512829121202e-14, 0)">
						<g id="XMLID_104_">
							<path id="XMLID_106_" class="st12" d="M918.1,207.4c-1.2-1.2-1.2-3.2,0-4.4c1.2-1.2,3.2-1.2,4.4,0c1.2,1.2,1.2,3.2,0,4.4&#10;&#9;&#9;&#9;&#9;&#9;&#9;&#9;&#9;C921.3,208.6,919.3,208.6,918.1,207.4z" style="fill: rgb(234, 187, 125);"/>
							<path id="XMLID_105_" class="st12" d="M905.6,220c-1.2-1.2-1.2-3.2,0-4.4c1.2-1.2,3.2-1.2,4.4,0c1.2,1.2,1.2,3.2,0,4.4&#10;&#9;&#9;&#9;&#9;&#9;&#9;&#9;&#9;C908.7,221.2,906.8,221.2,905.6,220z" style="fill: rgb(234, 187, 125);"/>
						</g>
						<path id="XMLID_103_" class="st12" d="M903.1,205c-1.2-1.2-1.2-3.2,0-4.4c1.2-1.2,3.2-1.2,4.4,0c1.2,1.2,1.2,3.2,0,4.4&#10;&#9;&#9;&#9;&#9;&#9;&#9;&#9;C906.3,206.2,904.3,206.2,903.1,205z" style="fill: rgb(234, 187, 125);"/>
					</g><g id="XMLID_96_" transform="matrix(1, 0, 0, 1, -8.526512829121202e-14, 0)">
							<path id="XMLID_99_" class="st12" d="M822.3,127.9c1.2,1.2,1.2,3.2,0,4.4c-1.2,1.2-3.2,1.2-4.4,0c-1.2-1.2-1.2-3.2,0-4.4&#10;&#9;&#9;&#9;&#9;&#9;&#9;&#9;&#9;C819.1,126.7,821.1,126.7,822.3,127.9z" style="fill: rgb(234, 187, 125);"/>
							<path id="XMLID_97_" class="st12" d="M834.8,115.4c1.2,1.2,1.2,3.2,0,4.4c-1.2,1.2-3.2,1.2-4.4,0c-1.2-1.2-1.2-3.2,0-4.4&#10;&#9;&#9;&#9;&#9;&#9;&#9;&#9;&#9;C831.6,114.2,833.6,114.2,834.8,115.4z" style="fill: rgb(234, 187, 125);"/>
						</g><path id="XMLID_94_" class="st12" d="M837.3,130.4c1.2,1.2,1.2,3.2,0,4.4c-1.2,1.2-3.2,1.2-4.4,0c-1.2-1.2-1.2-3.2,0-4.4&#10;&#9;&#9;&#9;&#9;&#9;&#9;&#9;C834.1,129.2,836.1,129.2,837.3,130.4z" style="fill: rgb(234, 187, 125);" transform="matrix(1, 0, 0, 1, -8.526512829121202e-14, 0)"/><g id="XMLID_139_" transform="matrix(1, 0, 0, 1, -8.526512829121202e-14, 0)">
				<path id="XMLID_185_" class="st14" d="M633.2,903.7c-1.5,1.5-4,1.5-5.6,0l-36-36c-1.5-1.5-1.5-4,0-5.6l122.5-122.5&#10;&#9;&#9;&#9;&#9;&#9;c1.5-1.5,4-1.5,5.6,0l36,36c1.5,1.5,1.5,4,0,5.6L633.2,903.7z" style="fill: rgb(175, 128, 67);"/>
				<path id="XMLID_151_" class="st15" d="M671.1,852.8c-1.3,1.3-3.7,1.2-5.2-0.4l-23-23c-1.5-1.5-1.7-3.9-0.4-5.2l33.6-33.6&#10;&#9;&#9;&#9;&#9;&#9;c1.3-1.3,3.7-1.2,5.2,0.4l23,23c1.5,1.5,1.7,3.9,0.4,5.2L671.1,852.8z" style="fill: rgb(255, 154, 21);"/>
				<g id="XMLID_140_">
					<g id="XMLID_146_">
						<g id="XMLID_148_">
							<path id="XMLID_150_" class="st12" d="M713.4,773.8c-1.2,1.2-3.2,1.2-4.4,0c-1.2-1.2-1.2-3.2,0-4.4c1.2-1.2,3.2-1.2,4.4,0&#10;&#9;&#9;&#9;&#9;&#9;&#9;&#9;&#9;C714.6,770.6,714.6,772.6,713.4,773.8z" style="fill: rgb(234, 187, 125);"/>
							<path id="XMLID_149_" class="st12" d="M725.9,786.3c-1.2,1.2-3.2,1.2-4.4,0c-1.2-1.2-1.2-3.2,0-4.4c1.2-1.2,3.2-1.2,4.4,0&#10;&#9;&#9;&#9;&#9;&#9;&#9;&#9;&#9;C727.1,783.2,727.1,785.1,725.9,786.3z" style="fill: rgb(234, 187, 125);"/>
						</g>
						<path id="XMLID_147_" class="st12" d="M710.9,788.8c-1.2,1.2-3.2,1.2-4.4,0c-1.2-1.2-1.2-3.2,0-4.4c1.2-1.2,3.2-1.2,4.4,0&#10;&#9;&#9;&#9;&#9;&#9;&#9;&#9;C712.1,785.6,712.1,787.6,710.9,788.8z" style="fill: rgb(234, 187, 125);"/>
					</g>
					<g id="XMLID_141_">
						<g id="XMLID_143_">
							<path id="XMLID_145_" class="st12" d="M633.9,869.6c1.2-1.2,3.2-1.2,4.4,0c1.2,1.2,1.2,3.2,0,4.4c-1.2,1.2-3.2,1.2-4.4,0&#10;&#9;&#9;&#9;&#9;&#9;&#9;&#9;&#9;C632.7,872.8,632.7,870.8,633.9,869.6z" style="fill: rgb(234, 187, 125);"/>
							<path id="XMLID_144_" class="st12" d="M621.4,857.1c1.2-1.2,3.2-1.2,4.4,0c1.2,1.2,1.2,3.2,0,4.4c-1.2,1.2-3.2,1.2-4.4,0&#10;&#9;&#9;&#9;&#9;&#9;&#9;&#9;&#9;C620.2,860.2,620.2,858.3,621.4,857.1z" style="fill: rgb(234, 187, 125);"/>
						</g>
						<path id="XMLID_142_" class="st12" d="M636.4,854.6c1.2-1.2,3.2-1.2,4.4,0c1.2,1.2,1.2,3.2,0,4.4c-1.2,1.2-3.2,1.2-4.4,0&#10;&#9;&#9;&#9;&#9;&#9;&#9;&#9;C635.2,857.8,635.2,855.8,636.4,854.6z" style="fill: rgb(234, 187, 125);"/>
					</g>
				</g>
			</g><path id="XMLID_138_" class="st8" d="M591.7,781.2c-1.5-1.5-1.5-4,0-5.6l36-36c1.5-1.5,4-1.5,5.6,0l122.5,122.5&#10;&#9;&#9;&#9;&#9;&#9;c1.5,1.5,1.5,4,0,5.6l-36,36c-1.5,1.5-4,1.5-5.6,0L591.7,781.2z" style="fill: rgb(193, 146, 77);" transform="matrix(1, 0, 0, 1, -8.526512829121202e-14, 0)"/><path id="XMLID_137_" class="st12" d="M642.6,819.2c-1.3-1.3-1.2-3.7,0.4-5.2l23-23c1.5-1.5,3.9-1.7,5.2-0.4l33.6,33.6&#10;&#9;&#9;&#9;&#9;&#9;c1.3,1.3,1.2,3.7-0.4,5.2l-23,23c-1.5,1.5-3.9,1.7-5.2,0.4L642.6,819.2z" style="fill: rgb(234, 187, 125);" transform="matrix(1, 0, 0, 1, -8.526512829121202e-14, 0)"/><g id="XMLID_132_" transform="matrix(1, 0, 0, 1, -8.526512829121202e-14, 0)">
						<g id="XMLID_134_">
							<path id="XMLID_136_" class="st12" d="M721.6,861.5c-1.2-1.2-1.2-3.2,0-4.4c1.2-1.2,3.2-1.2,4.4,0c1.2,1.2,1.2,3.2,0,4.4&#10;&#9;&#9;&#9;&#9;&#9;&#9;&#9;&#9;C724.7,862.7,722.8,862.7,721.6,861.5z" style="fill: rgb(234, 187, 125);"/>
							<path id="XMLID_135_" class="st12" d="M709,874c-1.2-1.2-1.2-3.2,0-4.4c1.2-1.2,3.2-1.2,4.4,0c1.2,1.2,1.2,3.2,0,4.4&#10;&#9;&#9;&#9;&#9;&#9;&#9;&#9;&#9;C712.2,875.2,710.2,875.2,709,874z" style="fill: rgb(234, 187, 125);"/>
						</g>
						<path id="XMLID_133_" class="st12" d="M706.6,859c-1.2-1.2-1.2-3.2,0-4.4c1.2-1.2,3.2-1.2,4.4,0c1.2,1.2,1.2,3.2,0,4.4&#10;&#9;&#9;&#9;&#9;&#9;&#9;&#9;C709.7,860.2,707.8,860.2,706.6,859z" style="fill: rgb(234, 187, 125);"/>
					</g><g id="XMLID_129_" transform="matrix(1, 0, 0, 1, -8.526512829121202e-14, 0)">
							<path id="XMLID_131_" class="st12" d="M625.7,781.9c1.2,1.2,1.2,3.2,0,4.4c-1.2,1.2-3.2,1.2-4.4,0c-1.2-1.2-1.2-3.2,0-4.4&#10;&#9;&#9;&#9;&#9;&#9;&#9;&#9;&#9;C622.6,780.8,624.5,780.8,625.7,781.9z" style="fill: rgb(234, 187, 125);"/>
							<path id="XMLID_130_" class="st12" d="M638.3,769.4c1.2,1.2,1.2,3.2,0,4.4c-1.2,1.2-3.2,1.2-4.4,0c-1.2-1.2-1.2-3.2,0-4.4&#10;&#9;&#9;&#9;&#9;&#9;&#9;&#9;&#9;C635.1,768.2,637.1,768.2,638.3,769.4z" style="fill: rgb(234, 187, 125);"/>
						</g><path id="XMLID_128_" class="st12" d="M640.7,784.4c1.2,1.2,1.2,3.2,0,4.4c-1.2,1.2-3.2,1.2-4.4,0c-1.2-1.2-1.2-3.2,0-4.4&#10;&#9;&#9;&#9;&#9;&#9;&#9;&#9;C637.6,783.2,639.5,783.2,640.7,784.4z" style="fill: rgb(234, 187, 125);" transform="matrix(1, 0, 0, 1, -8.526512829121202e-14, 0)"/><g id="XMLID_74_" transform="matrix(1, 0, 0, 1, -8.526512829121202e-14, 0)">
				<g id="XMLID_80_">
					<g id="XMLID_95_">
						<path id="XMLID_46_" class="st16" d="M626.4,179.6l-10.1,7.8l-8.3,6.4l-10.1,7.8c-2.3,1.8-2.8,5.2-1,7.5l0.1,0.2&#10;&#9;&#9;&#9;&#9;&#9;&#9;&#9;c1.8,2.4,5.2,2.8,7.5,1l5.9-4.5l49,63.6c1.8,2.3,5.2,2.8,7.5,1l8.3-6.4c2.3-1.8,2.8-5.2,1-7.5l-49-63.6l5.9-4.5&#10;&#9;&#9;&#9;&#9;&#9;&#9;&#9;c2.3-1.8,2.8-5.2,1-7.5l-0.1-0.2C632.1,178.2,628.7,177.8,626.4,179.6z" style="fill: rgb(22, 49, 61);"/>
					</g>
					<g id="XMLID_84_">
						<path id="XMLID_45_" class="st17" d="M680.8,235.2l-42.9,33.1c-4,3.1-4.7,8.8-1.7,12.8c3.1,4,8.8,4.7,12.8,1.6l3-2.3&#10;&#9;&#9;&#9;&#9;&#9;&#9;&#9;c0.3,0.5,0.5,0.9,0.9,1.4l115.3,149.4c3.6,4.7,10.4,5.6,15,1.9l20.2-15.6c4.7-3.6,5.6-10.4,1.9-15L690,253.2&#10;&#9;&#9;&#9;&#9;&#9;&#9;&#9;c-0.3-0.4-0.7-0.8-1.1-1.2l3-2.3c4-3.1,4.7-8.8,1.6-12.8C690.5,232.9,684.7,232.2,680.8,235.2z" style="fill: rgb(237, 237, 237);"/>
						<path id="XMLID_44_" class="st8" d="M805.7,403.4c3.3,4.3,2.2,10.7-2.5,14.4l-19.9,15.4c-4.7,3.6-11.2,3-14.5-1.3L707.2,352&#10;&#9;&#9;&#9;&#9;&#9;&#9;&#9;c-3.3-4.3-2.2-10.7,2.5-14.4l19.9-15.4c4.7-3.6,11.2-3,14.5,1.3L805.7,403.4z" style="fill: rgb(193, 146, 77);"/>
						<g id="XMLID_85_">
							
								<path d="M 678.599976 306.200012 H 702.099976 V 312.700012 H 678.599976 V 306.200012 Z" id="XMLID_43_" transform="matrix(0.7918 -0.6107 0.6107 0.7918 -45.3092 486.0143)" class="st16" style="fill: rgb(22, 49, 61);"/>
							
								<path d="M 689.5 320.399994 H 713 V 326.899994 H 689.5 V 320.399994 Z" id="XMLID_42_" transform="matrix(0.7918 -0.6107 0.6107 0.7918 -51.6848 495.6333)" class="st16" style="fill: rgb(22, 49, 61);"/>
							
								<path d="M 700.400024 334.600006 H 723.900024 V 341.100006 H 700.400024 V 334.600006 Z" id="XMLID_41_" transform="matrix(0.7918 -0.6107 0.6107 0.7918 -58.0622 505.2551)" class="st16" style="fill: rgb(22, 49, 61);"/>
							
								<path d="M 711.299988 348.700012 H 734.799988 V 355.200012 H 711.299988 V 348.700012 Z" id="XMLID_40_" transform="matrix(0.7918 -0.6107 0.6107 0.7918 -64.437 514.873)" class="st16" style="fill: rgb(22, 49, 61);"/>
							
								<path d="M 722.299988 362.899994 H 745.799988 V 369.399994 H 722.299988 V 362.899994 Z" id="XMLID_39_" transform="matrix(0.7918 -0.6107 0.6107 0.7918 -70.8111 524.4898)" class="st16" style="fill: rgb(22, 49, 61);"/>
							
								<path d="M 733.200012 377 H 756.700012 V 383.5 H 733.200012 V 377 Z" id="XMLID_38_" transform="matrix(0.7918 -0.6107 0.6107 0.7918 -77.1873 534.1096)" class="st16" style="fill: rgb(22, 49, 61);"/>
							
								<path d="M 744.099976 391.200012 H 767.599976 V 397.700012 H 744.099976 V 391.200012 Z" id="XMLID_37_" transform="matrix(0.7918 -0.6107 0.6107 0.7918 -83.5645 543.7311)" class="st16" style="fill: rgb(22, 49, 61);"/>
						</g>
					</g>
					<path id="XMLID_36_" class="st18" d="M807.6,421.4c1.9,2.4,1.4,5.9-1,7.8l-13.1,10.1c-2.4,1.9-5.9,1.4-7.8-1l0,0&#10;&#9;&#9;&#9;&#9;&#9;&#9;c-1.9-2.4-1.4-5.9,1-7.8l13.1-10.1C802.2,418.5,805.7,418.9,807.6,421.4L807.6,421.4z" style="fill: rgb(193, 193, 193);"/>
					<path id="XMLID_35_" class="st18" d="M820.6,448.9c1.8,2.3,1.4,5.7-1,7.5l-3.2,2.5c-2.3,1.8-5.7,1.4-7.5-1l-18.3-23.7&#10;&#9;&#9;&#9;&#9;&#9;&#9;c-1.8-2.3-1.4-5.7,1-7.5l3.2-2.5c2.3-1.8,5.7-1.4,7.5,1L820.6,448.9z" style="fill: rgb(193, 193, 193);"/>
					<path id="XMLID_34_" class="st16" d="M869.7,524.6c-0.6,0.5-1.4,0.3-1.9-0.2L817,458.5c-0.5-0.6-0.3-1.4,0.2-1.9&#10;&#9;&#9;&#9;&#9;&#9;&#9;c0.6-0.5,1.4-0.3,1.9,0.2l50.8,65.9C870.4,523.3,870.3,524.1,869.7,524.6z" style="fill: rgb(22, 49, 61);"/>
				</g>
			</g><g id="XMLID_66_" transform="matrix(1, 0, 0, 1, -8.526512829121202e-14, 0)">
				<g id="XMLID_72_">
					<g id="XMLID_75_">
						<path id="XMLID_58_" class="st10" d="M46.4,476.2c-20.9-56.8,11.3-102.5,11.7-103c2.2-3,1.5-7.1-1.5-9.3&#10;&#9;&#9;&#9;&#9;&#9;&#9;&#9;c-3-2.2-7.1-1.5-9.3,1.5c-1.5,2.1-36.9,51.8-13.3,115.6c0.1,0.1,0.1,0.3,0.2,0.4l41.9,93.3l12.1-5.6L46.4,476.2z" style="fill: rgb(253, 90, 57);"/>
						<path id="XMLID_57_" class="st5" d="M223.4,659.7c-76.6,25.3-112.8-40.9-114.1-43.4l-21.2-47.1l-12.1,5.6l21.3,47.3&#10;&#9;&#9;&#9;&#9;&#9;&#9;&#9;c0.4,0.8,39.5,72.9,119.9,53.1c3.4-0.8,6.8-1.8,10.3-3c3.5-1.2,5.4-4.9,4.2-8.4C230.6,660.4,226.9,658.5,223.4,659.7z" style="fill: rgb(74, 127, 145);"/>
					</g>
					<path id="XMLID_56_" class="st5" d="M64.2,367.9c2.9,3.4,2.5,8.6-0.9,11.5l0,0c-3.4,2.9-8.6,2.5-11.5-0.9l-7.3-8.6&#10;&#9;&#9;&#9;&#9;&#9;&#9;c-2.9-3.4-2.5-8.6,0.9-11.5l0,0c3.4-2.9,8.6-2.5,11.5,0.9L64.2,367.9z" style="fill: rgb(74, 127, 145);"/>
				</g>
				<g id="XMLID_67_">
					<g id="XMLID_69_">
						<path id="XMLID_55_" class="st10" d="M300.6,413.7c-7.8-60-57.5-85.5-58.1-85.8c-3.3-1.6-4.6-5.6-3-8.9c1.6-3.3,5.6-4.6,8.9-3&#10;&#9;&#9;&#9;&#9;&#9;&#9;&#9;c2.3,1.1,56.7,28.8,65.4,96.3c0,0.2,0,0.3,0,0.5l6.1,102.2l-13.3,0.6L300.6,413.7z" style="fill: rgb(253, 90, 57);"/>
						<path id="XMLID_54_" class="st5" d="M228.7,658.3c79.6-13.1,81-88.5,81-91.3l-3.1-51.6l13.3-0.6l3.1,51.8&#10;&#9;&#9;&#9;&#9;&#9;&#9;&#9;c0,0.9-1.2,82.9-81.7,102.7c-3.4,0.8-6.9,1.5-10.5,2.1c-3.6,0.6-7-1.9-7.6-5.5C222.6,662.4,225,659,228.7,658.3z" style="fill: rgb(74, 127, 145);"/>
					</g>
					<path id="XMLID_53_" class="st5" d="M234.6,326c-1,4.4,1.7,8.8,6.1,9.8l0,0c4.4,1,8.8-1.7,9.8-6.1l2.5-11&#10;&#9;&#9;&#9;&#9;&#9;&#9;c1-4.4-1.7-8.8-6.1-9.8l0,0c-4.4-1-8.8,1.7-9.8,6.1L234.6,326z" style="fill: rgb(74, 127, 145);"/>
				</g>
			</g><path id="XMLID_52_" class="st5" d="M430.4,568.6l-40,9.8c-27.3,6.7-44.1,34.4-37.4,61.7l0.4,1.7l43,175l0.4,1.7&#10;&#9;&#9;&#9;&#9;c5,20.2-7.4,40.7-27.6,45.6l-40,9.8c-20.2,5-40.7-7.4-45.6-27.6l-43.4-176.6l-12.9,3.2l43.4,176.6c6.7,27.3,34.4,44.1,61.7,37.4&#10;&#9;&#9;&#9;&#9;l40-9.8c27.3-6.7,44.1-34.4,37.4-61.7l-0.4-1.7l-43-175l-0.4-1.7c-5-20.2,7.4-40.7,27.6-45.6l40-9.8c20.2-5,40.7,7.4,45.6,27.6&#10;&#9;&#9;&#9;&#9;l20.5,83.3l12.9-3.2L492.1,606C485.4,578.7,457.7,561.9,430.4,568.6z" style="fill: rgb(74, 127, 145);" transform="matrix(1, 0, 0, 1, -8.526512829121202e-14, 0)"/><path id="XMLID_47_" class="st10" d="M257.6,648.4L239,653l-4.6-18.6c-0.4-1.5-1.8-2.4-3.3-2l-13.3,3.3c-1.5,0.4-2.4,1.8-2,3.3&#10;&#9;&#9;&#9;&#9;l4.6,18.6l-18.6,4.6c-1.5,0.4-2.4,1.8-2,3.3l3.3,13.3c0.4,1.5,1.8,2.4,3.3,2l18.6-4.6l4.6,18.6c0.4,1.5,1.9,2.4,3.3,2l13.3-3.3&#10;&#9;&#9;&#9;&#9;c1.5-0.4,2.4-1.8,2-3.3l-4.6-18.6l18.6-4.6c1.5-0.4,2.4-1.8,2-3.3l-3.3-13.3C260.6,648.9,259.1,648,257.6,648.4z" style="fill: rgb(253, 90, 57);" transform="matrix(1, 0, 0, 1, -8.526512829121202e-14, 0)"/><path id="XMLID_33_" class="st11" d="M538.4,697c3.9,16.1-5.9,32.3-21.9,36.2l0,0c-16.1,3.9-32.3-5.9-36.2-21.9l0,0&#10;&#9;&#9;&#9;&#9;&#9;c-3.9-16.1,5.9-32.3,21.9-36.2l0,0C518.3,671.1,534.5,681,538.4,697L538.4,697z" style="fill: rgb(209, 209, 209);" transform="matrix(1, 0, 0, 1, -8.526512829121202e-14, 0)"/><path id="XMLID_32_" class="st19" d="M521.8,701.1c1.7,6.9-2.5,13.8-9.4,15.5l0,0c-6.9,1.7-13.8-2.5-15.5-9.4l0,0&#10;&#9;&#9;&#9;&#9;&#9;c-1.7-6.9,2.5-13.8,9.4-15.5l0,0C513.2,690.1,520.1,694.3,521.8,701.1L521.8,701.1z" style="fill: rgb(52, 89, 107);" transform="matrix(1, 0, 0, 1, -8.526512829121202e-14, 0)"/><path id="XMLID_31_" class="st20" d="M597.3,368.7c1,2.4-0.1,5.2-2.5,6.2l0,0c-2.4,1-5.2-0.1-6.2-2.5l-26.4-62.5&#10;&#9;&#9;&#9;&#9;c-1-2.4,0.1-5.2,2.5-6.2l0,0c2.4-1,5.2,0.1,6.2,2.5L597.3,368.7z" style="fill: rgb(153, 153, 153);" transform="matrix(1, 0, 0, 1, -8.526512829121202e-14, 0)"/><path id="XMLID_30_" class="st17" d="M729,666.4c1.4,3.4-0.2,7.3-3.5,8.7l-5.2,2.2c-3.4,1.4-7.3-0.2-8.7-3.5L581.4,365.5&#10;&#9;&#9;&#9;&#9;&#9;c-1.4-3.4,0.2-7.3,3.5-8.7l5.2-2.2c3.4-1.4,7.3,0.2,8.7,3.5L729,666.4z" style="fill: rgb(237, 237, 237);" transform="matrix(1, 0, 0, 1, -8.526512829121202e-14, 0)"/><path id="XMLID_29_" class="st20" d="M609.4,416.2l-5.2,2.2c-0.5,0.2-1.2-0.3-1.6-1.2c-0.4-0.8-0.2-1.7,0.3-1.9l5.2-2.2&#10;&#9;&#9;&#9;&#9;&#9;&#9;c0.5-0.2,1.2,0.3,1.6,1.2C610,415.2,609.9,416,609.4,416.2z" style="fill: rgb(153, 153, 153);" transform="matrix(1, 0, 0, 1, -8.526512829121202e-14, 0)"/><path id="XMLID_28_" class="st20" d="M614.2,427.7l-5.2,2.2c-0.5,0.2-1.2-0.3-1.6-1.2c-0.4-0.8-0.2-1.7,0.3-1.9l5.2-2.2&#10;&#9;&#9;&#9;&#9;&#9;&#9;c0.5-0.2,1.2,0.3,1.6,1.2C614.8,426.6,614.7,427.4,614.2,427.7z" style="fill: rgb(153, 153, 153);" transform="matrix(1, 0, 0, 1, -8.526512829121202e-14, 0)"/><path id="XMLID_27_" class="st20" d="M619,439.1l-5.2,2.2c-0.5,0.2-1.2-0.3-1.6-1.2c-0.4-0.8-0.2-1.7,0.3-1.9l5.2-2.2&#10;&#9;&#9;&#9;&#9;&#9;&#9;c0.5-0.2,1.2,0.3,1.6,1.2C619.6,438,619.5,438.9,619,439.1z" style="fill: rgb(153, 153, 153);" transform="matrix(1, 0, 0, 1, -8.526512829121202e-14, 0)"/><path id="XMLID_26_" class="st20" d="M623.8,450.5l-5.2,2.2c-0.5,0.2-1.2-0.3-1.6-1.2c-0.4-0.8-0.2-1.7,0.3-1.9l5.2-2.2&#10;&#9;&#9;&#9;&#9;&#9;&#9;c0.5-0.2,1.2,0.3,1.6,1.2C624.4,449.4,624.3,450.3,623.8,450.5z" style="fill: rgb(153, 153, 153);" transform="matrix(1, 0, 0, 1, -8.526512829121202e-14, 0)"/><path id="XMLID_25_" class="st20" d="M628.7,461.9l-5.2,2.2c-0.5,0.2-1.2-0.3-1.6-1.2c-0.4-0.8-0.2-1.7,0.3-1.9l5.2-2.2&#10;&#9;&#9;&#9;&#9;&#9;&#9;c0.5-0.2,1.2,0.3,1.6,1.2C629.3,460.8,629.2,461.7,628.7,461.9z" style="fill: rgb(153, 153, 153);" transform="matrix(1, 0, 0, 1, -8.526512829121202e-14, 0)"/><path id="XMLID_24_" class="st20" d="M633.5,473.3l-5.2,2.2c-0.5,0.2-1.2-0.3-1.6-1.2c-0.4-0.8-0.2-1.7,0.3-1.9l5.2-2.2&#10;&#9;&#9;&#9;&#9;&#9;&#9;c0.5-0.2,1.2,0.3,1.6,1.2C634.1,472.3,634,473.1,633.5,473.3z" style="fill: rgb(153, 153, 153);" transform="matrix(1, 0, 0, 1, -8.526512829121202e-14, 0)"/><path id="XMLID_23_" class="st20" d="M638.3,484.8l-5.2,2.2c-0.5,0.2-1.2-0.3-1.6-1.2c-0.4-0.8-0.2-1.7,0.3-1.9l5.2-2.2&#10;&#9;&#9;&#9;&#9;&#9;&#9;c0.5-0.2,1.2,0.3,1.6,1.1C638.9,483.7,638.8,484.6,638.3,484.8z" style="fill: rgb(153, 153, 153);" transform="matrix(1, 0, 0, 1, -8.526512829121202e-14, 0)"/><path id="XMLID_22_" class="st20" d="M643.1,496.2l-5.2,2.2c-0.5,0.2-1.2-0.3-1.6-1.2c-0.4-0.8-0.2-1.7,0.3-1.9l5.2-2.2&#10;&#9;&#9;&#9;&#9;&#9;&#9;c0.5-0.2,1.2,0.3,1.6,1.1C643.7,495.1,643.6,496,643.1,496.2z" style="fill: rgb(153, 153, 153);" transform="matrix(1, 0, 0, 1, -8.526512829121202e-14, 0)"/><path id="XMLID_21_" class="st20" d="M647.9,507.6l-5.2,2.2c-0.5,0.2-1.2-0.3-1.6-1.2c-0.4-0.8-0.2-1.7,0.3-1.9l5.2-2.2&#10;&#9;&#9;&#9;&#9;&#9;&#9;c0.5-0.2,1.2,0.3,1.6,1.2C648.6,506.5,648.4,507.4,647.9,507.6z" style="fill: rgb(153, 153, 153);" transform="matrix(1, 0, 0, 1, -8.526512829121202e-14, 0)"/><path id="XMLID_20_" class="st20" d="M652.8,519l-5.2,2.2c-0.5,0.2-1.2-0.3-1.6-1.2c-0.4-0.8-0.2-1.7,0.3-1.9l5.2-2.2&#10;&#9;&#9;&#9;&#9;&#9;&#9;c0.5-0.2,1.2,0.3,1.6,1.2C653.4,518,653.3,518.8,652.8,519z" style="fill: rgb(153, 153, 153);" transform="matrix(1, 0, 0, 1, -8.526512829121202e-14, 0)"/><path id="XMLID_19_" class="st20" d="M657.6,530.4l-5.2,2.2c-0.5,0.2-1.2-0.3-1.6-1.2c-0.4-0.8-0.2-1.7,0.3-1.9l5.2-2.2&#10;&#9;&#9;&#9;&#9;&#9;&#9;c0.5-0.2,1.2,0.3,1.6,1.1C658.2,529.4,658.1,530.2,657.6,530.4z" style="fill: rgb(153, 153, 153);" transform="matrix(1, 0, 0, 1, -8.526512829121202e-14, 0)"/><path id="XMLID_18_" class="st20" d="M662.4,541.9l-5.2,2.2c-0.5,0.2-1.2-0.3-1.6-1.2c-0.4-0.8-0.2-1.7,0.3-1.9l5.2-2.2&#10;&#9;&#9;&#9;&#9;&#9;&#9;c0.5-0.2,1.2,0.3,1.6,1.2C663,540.8,662.9,541.6,662.4,541.9z" style="fill: rgb(153, 153, 153);" transform="matrix(1, 0, 0, 1, -8.526512829121202e-14, 0)"/><path id="XMLID_17_" class="st20" d="M667.2,553.3l-5.2,2.2c-0.5,0.2-1.2-0.3-1.6-1.2c-0.4-0.8-0.2-1.7,0.3-1.9l5.2-2.2&#10;&#9;&#9;&#9;&#9;&#9;&#9;c0.5-0.2,1.2,0.3,1.6,1.1C667.8,552.2,667.7,553.1,667.2,553.3z" style="fill: rgb(153, 153, 153);" transform="matrix(1, 0, 0, 1, -8.526512829121202e-14, 0)"/><path id="XMLID_16_" class="st20" d="M672.1,564.7l-5.2,2.2c-0.5,0.2-1.2-0.3-1.6-1.2c-0.4-0.8-0.2-1.7,0.3-1.9l5.2-2.2&#10;&#9;&#9;&#9;&#9;&#9;&#9;c0.5-0.2,1.2,0.3,1.6,1.2C672.7,563.6,672.6,564.5,672.1,564.7z" style="fill: rgb(153, 153, 153);" transform="matrix(1, 0, 0, 1, -8.526512829121202e-14, 0)"/><path id="XMLID_15_" class="st20" d="M676.9,576.1l-5.2,2.2c-0.5,0.2-1.2-0.3-1.6-1.2c-0.4-0.8-0.2-1.7,0.3-1.9l5.2-2.2&#10;&#9;&#9;&#9;&#9;&#9;&#9;c0.5-0.2,1.2,0.3,1.6,1.1C677.5,575.1,677.4,575.9,676.9,576.1z" style="fill: rgb(153, 153, 153);" transform="matrix(1, 0, 0, 1, -8.526512829121202e-14, 0)"/><path id="XMLID_49_" class="st20" d="M681.7,587.5l-5.2,2.2c-0.5,0.2-1.2-0.3-1.6-1.2c-0.4-0.8-0.2-1.7,0.3-1.9l5.2-2.2&#10;&#9;&#9;&#9;&#9;&#9;&#9;c0.5-0.2,1.2,0.3,1.6,1.2C682.3,586.5,682.2,587.3,681.7,587.5z" style="fill: rgb(153, 153, 153);" transform="matrix(1, 0, 0, 1, -8.526512829121202e-14, 0)"/><path id="XMLID_50_" class="st20" d="M686.5,599l-5.2,2.2c-0.5,0.2-1.2-0.3-1.6-1.2c-0.4-0.8-0.2-1.7,0.3-1.9l5.2-2.2&#10;&#9;&#9;&#9;&#9;&#9;&#9;c0.5-0.2,1.2,0.3,1.6,1.2C687.1,597.9,687,598.8,686.5,599z" style="fill: rgb(153, 153, 153);" transform="matrix(1, 0, 0, 1, -8.526512829121202e-14, 0)"/><path id="XMLID_51_" class="st20" d="M691.3,610.4l-5.2,2.2c-0.5,0.2-1.2-0.3-1.6-1.2c-0.4-0.8-0.2-1.7,0.3-1.9l5.2-2.2&#10;&#9;&#9;&#9;&#9;&#9;&#9;c0.5-0.2,1.2,0.3,1.6,1.2C692,609.3,691.8,610.2,691.3,610.4z" style="fill: rgb(153, 153, 153);" transform="matrix(1, 0, 0, 1, -8.526512829121202e-14, 0)"/><path id="XMLID_123_" class="st20" d="M696.2,621.8L691,624c-0.5,0.2-1.2-0.3-1.6-1.2c-0.4-0.8-0.2-1.7,0.3-1.9l5.2-2.2&#10;&#9;&#9;&#9;&#9;&#9;&#9;c0.5-0.2,1.2,0.3,1.6,1.1C696.8,620.7,696.7,621.6,696.2,621.8z" style="fill: rgb(153, 153, 153);" transform="matrix(1, 0, 0, 1, -8.526512829121202e-14, 0)"/><path id="XMLID_160_" class="st20" d="M701,633.2l-5.2,2.2c-0.5,0.2-1.2-0.3-1.6-1.2c-0.4-0.8-0.2-1.7,0.3-1.9l5.2-2.2&#10;&#9;&#9;&#9;&#9;&#9;&#9;c0.5-0.2,1.2,0.3,1.6,1.2C701.6,632.2,701.5,633,701,633.2z" style="fill: rgb(153, 153, 153);" transform="matrix(1, 0, 0, 1, -8.526512829121202e-14, 0)"/><g id="XMLID_166_" transform="matrix(1, 0, 0, 1, -8.526512829121202e-14, 0)">
				<path id="XMLID_168_" class="st9" d="M455.5,376.7c-6.6,0-12,5.4-12,12v3.5c0,6.6,5.4,12,12,12h17v-27.6H455.5z" style="fill: rgb(248, 248, 248);"/>
				<path id="XMLID_167_" class="st10" d="M472.5,404.3h17c6.6,0,12-5.4,12-12v-3.5c0-6.6-5.4-12-12-12h-17V404.3z" style="fill: rgb(253, 90, 57);"/>
			</g><path id="XMLID_169_" class="st9" d="M407.6,392.2c0,6.6,5.4,12,12,12h3.5c6.6,0,12-5.4,12-12v-17h-27.6V392.2z" style="fill: rgb(248, 248, 248);" transform="matrix(1, 0, 0, 1, -8.526512829121202e-14, 0)"/><path id="XMLID_170_" class="st10" d="M435.2,375.2v-17.1c0-6.6-5.4-12-12-12h-3.5c-6.6,0-12,5.4-12,12v17.1H435.2z" style="fill: rgb(253, 90, 57);" transform="matrix(1, 0, 0, 1, -8.526512829121202e-14, 0)"/><path id="XMLID_175_" class="st9" d="M547.3,375.7c-5.5-3.7-13-2.2-16.7,3.3l-2,2.9c-3.7,5.5-2.2,13,3.3,16.7l14.1,9.5&#10;&#9;&#9;&#9;&#9;&#9;l15.4-22.9L547.3,375.7z" style="fill: rgb(248, 248, 248);" transform="matrix(1, 0, 0, 1, -8.526512829121202e-14, 0)"/><path id="XMLID_174_" class="st10" d="M546,408.1l14.2,9.5c5.5,3.7,13,2.2,16.7-3.3l2-2.9c3.7-5.5,2.2-13-3.3-16.7l-14.2-9.5&#10;&#9;&#9;&#9;&#9;&#9;L546,408.1z" style="fill: rgb(253, 90, 57);" transform="matrix(1, 0, 0, 1, -8.526512829121202e-14, 0)"/><path id="XMLID_172_" class="st9" d="M444.2,469.3c4.1,5.2,11.7,6,16.9,1.9l2.7-2.2c5.2-4.2,6-11.7,1.9-16.9l-10.6-13.3&#10;&#9;&#9;&#9;&#9;&#9;L433.6,456L444.2,469.3z" style="fill: rgb(248, 248, 248);" transform="matrix(1, 0, 0, 1, -8.526512829121202e-14, 0)"/><path id="XMLID_176_" class="st10" d="M455.1,438.8l-10.6-13.3c-4.1-5.2-11.7-6-16.9-1.9l-2.7,2.2c-5.2,4.1-6,11.7-1.9,16.9&#10;&#9;&#9;&#9;&#9;&#9;l10.6,13.3L455.1,438.8z" style="fill: rgb(253, 90, 57);" transform="matrix(1, 0, 0, 1, -8.526512829121202e-14, 0)"/><path id="XMLID_184_" class="st9" d="M489.4,419.6c-6.6,0-12,5.4-12,12v3.5c0,6.6,5.4,12,12,12h17v-27.6H489.4z" style="fill: rgb(248, 248, 248);" transform="matrix(1, 0, 0, 1, -8.526512829121202e-14, 0)"/><path id="XMLID_183_" class="st10" d="M506.4,447.2h17c6.6,0,12-5.4,12-12v-3.5c0-6.6-5.4-12-12-12h-17V447.2z" style="fill: rgb(253, 90, 57);" transform="matrix(1, 0, 0, 1, -8.526512829121202e-14, 0)"/><path id="XMLID_181_" class="st9" d="M480.6,313.5c-5.5-3.7-13-2.2-16.7,3.3l-2,2.9c-3.7,5.5-2.2,13,3.3,16.7l14.1,9.5&#10;&#9;&#9;&#9;&#9;&#9;l15.4-22.9L480.6,313.5z" style="fill: rgb(248, 248, 248);" transform="matrix(1, 0, 0, 1, -8.526512829121202e-14, 0)"/><path id="XMLID_180_" class="st10" d="M479.4,345.8l14.2,9.5c5.5,3.7,13,2.2,16.7-3.3l2-2.9c3.7-5.5,2.2-13-3.3-16.7l-14.2-9.5&#10;&#9;&#9;&#9;&#9;&#9;L479.4,345.8z" style="fill: rgb(253, 90, 57);" transform="matrix(1, 0, 0, 1, -8.526512829121202e-14, 0)"/><path id="XMLID_178_" class="st9" d="M381.3,433.8c4.1,5.2,11.7,6,16.9,1.9l2.7-2.2c5.2-4.2,6-11.7,1.9-16.9l-10.6-13.3&#10;&#9;&#9;&#9;&#9;&#9;l-21.5,17.2L381.3,433.8z" style="fill: rgb(248, 248, 248);" transform="matrix(1, 0, 0, 1, -8.526512829121202e-14, 0)"/><path id="XMLID_186_" class="st10" d="M392.2,403.3l-10.6-13.3c-4.1-5.2-11.7-6-16.9-1.9l-2.7,2.2c-5.2,4.1-6,11.7-1.9,16.9&#10;&#9;&#9;&#9;&#9;&#9;l10.6,13.3L392.2,403.3z" style="fill: rgb(253, 90, 57);" transform="matrix(1, 0, 0, 1, -8.526512829121202e-14, 0)"/><g id="XMLID_205_" transform="matrix(1, 0, 0, 1, -8.526512829121202e-14, 0)">
				<path id="XMLID_207_" class="st9" d="M164.2,136.2c-6.6,0-12,5.4-12,12v3.5c0,6.6,5.4,12,12,12h17v-27.6H164.2z" style="fill: rgb(248, 248, 248);"/>
				<path id="XMLID_206_" class="st10" d="M181.3,163.7h17c6.6,0,12-5.4,12-12v-3.5c0-6.6-5.4-12-12-12h-17V163.7z" style="fill: rgb(253, 90, 57);"/>
			</g><path id="XMLID_204_" class="st9" d="M116.3,151.7c0,6.6,5.4,12,12,12h3.5c6.6,0,12-5.4,12-12v-17h-27.6V151.7z" style="fill: rgb(248, 248, 248);" transform="matrix(1, 0, 0, 1, -8.526512829121202e-14, 0)"/><path id="XMLID_203_" class="st10" d="M143.9,134.7v-17.1c0-6.6-5.4-12-12-12h-3.5c-6.6,0-12,5.4-12,12v17.1H143.9z" style="fill: rgb(253, 90, 57);" transform="matrix(1, 0, 0, 1, -8.526512829121202e-14, 0)"/><path id="XMLID_201_" class="st9" d="M256,135.2c-5.5-3.7-13-2.2-16.7,3.3l-2,2.9c-3.7,5.5-2.2,13,3.3,16.7l14.1,9.5l15.4-22.9&#10;&#9;&#9;&#9;&#9;&#9;L256,135.2z" style="fill: rgb(248, 248, 248);" transform="matrix(1, 0, 0, 1, -8.526512829121202e-14, 0)"/><path id="XMLID_200_" class="st10" d="M254.8,167.6l14.2,9.5c5.5,3.7,13,2.2,16.7-3.3l2-2.9c3.7-5.5,2.2-13-3.3-16.7l-14.2-9.5&#10;&#9;&#9;&#9;&#9;&#9;L254.8,167.6z" style="fill: rgb(253, 90, 57);" transform="matrix(1, 0, 0, 1, -8.526512829121202e-14, 0)"/><path id="XMLID_198_" class="st9" d="M153,228.8c4.1,5.2,11.7,6,16.9,1.9l2.7-2.2c5.2-4.2,6-11.7,1.9-16.9l-10.6-13.3&#10;&#9;&#9;&#9;&#9;&#9;l-21.5,17.2L153,228.8z" style="fill: rgb(248, 248, 248);" transform="matrix(1, 0, 0, 1, -8.526512829121202e-14, 0)"/><path id="XMLID_197_" class="st10" d="M163.9,198.3l-10.6-13.3c-4.1-5.2-11.7-6-16.9-1.9l-2.7,2.2c-5.2,4.1-6,11.7-1.9,16.9&#10;&#9;&#9;&#9;&#9;&#9;l10.6,13.3L163.9,198.3z" style="fill: rgb(253, 90, 57);" transform="matrix(1, 0, 0, 1, -8.526512829121202e-14, 0)"/><path id="XMLID_195_" class="st9" d="M198.1,179.1c-6.6,0-12,5.4-12,12v3.5c0,6.6,5.4,12,12,12h17v-27.6H198.1z" style="fill: rgb(248, 248, 248);" transform="matrix(1, 0, 0, 1, -8.526512829121202e-14, 0)"/><path id="XMLID_194_" class="st10" d="M215.1,206.7h17c6.6,0,12-5.4,12-12v-3.5c0-6.6-5.4-12-12-12h-17V206.7z" style="fill: rgb(253, 90, 57);" transform="matrix(1, 0, 0, 1, -8.526512829121202e-14, 0)"/><path id="XMLID_192_" class="st9" d="M189.3,72.9c-5.5-3.7-13-2.2-16.7,3.3l-2,2.9c-3.7,5.5-2.2,13,3.3,16.7l14.1,9.5l15.4-22.9&#10;&#9;&#9;&#9;&#9;&#9;L189.3,72.9z" style="fill: rgb(248, 248, 248);" transform="matrix(1, 0, 0, 1, -8.526512829121202e-14, 0)"/><path id="XMLID_191_" class="st10" d="M188.1,105.3l14.2,9.5c5.5,3.7,13,2.2,16.7-3.3l2-2.9c3.7-5.5,2.2-13-3.3-16.7l-14.2-9.5&#10;&#9;&#9;&#9;&#9;&#9;L188.1,105.3z" style="fill: rgb(253, 90, 57);" transform="matrix(1, 0, 0, 1, -8.526512829121202e-14, 0)"/><path id="XMLID_189_" class="st9" d="M90.1,193.3c4.1,5.2,11.7,6,16.9,1.9l2.7-2.2c5.2-4.2,6-11.7,1.9-16.9L101,162.7L79.4,180&#10;&#9;&#9;&#9;&#9;&#9;L90.1,193.3z" style="fill: rgb(248, 248, 248);" transform="matrix(1, 0, 0, 1, -8.526512829121202e-14, 0)"/><path id="XMLID_216_" class="st10" d="M101,162.7l-10.6-13.3c-4.1-5.2-11.7-6-16.9-1.9l-2.7,2.2c-5.2,4.1-6,11.7-1.9,16.9&#10;&#9;&#9;&#9;&#9;&#9;L79.4,180L101,162.7z" style="fill: rgb(253, 90, 57);" transform="matrix(1, 0, 0, 1, -8.526512829121202e-14, 0)"/>
</svg>